<svg width="24" height="24" viewBox="0 0 24 24" fill="none" xmlns="http://www.w3.org/2000/svg">
<path d="M21.5999 12C21.5999 14.5461 20.5885 16.9879 18.7881 18.7882C16.9878 20.5886 14.546 21.6 11.9999 21.6C9.45382 21.6 7.01203 20.5886 5.21168 18.7882C3.41133 16.9879 2.3999 14.5461 2.3999 12C2.3999 9.45392 3.41133 7.01212 5.21168 5.21177C7.01203 3.41142 9.45382 2.39999 11.9999 2.39999C14.546 2.39999 16.9878 3.41142 18.7881 5.21177C20.5885 7.01212 21.5999 9.45392 21.5999 12ZM7.1999 12C7.1999 12.1591 7.26312 12.3117 7.37564 12.4243C7.48816 12.5368 7.64077 12.6 7.7999 12.6H11.3999V16.2C11.3999 16.3591 11.4631 16.5117 11.5756 16.6243C11.6882 16.7368 11.8408 16.8 11.9999 16.8C12.159 16.8 12.3116 16.7368 12.4242 16.6243C12.5367 16.5117 12.5999 16.3591 12.5999 16.2V12.6H16.1999C16.359 12.6 16.5116 12.5368 16.6242 12.4243C16.7367 12.3117 16.7999 12.1591 16.7999 12C16.7999 11.8409 16.7367 11.6883 16.6242 11.5757C16.5116 11.4632 16.359 11.4 16.1999 11.4H12.5999V7.79999C12.5999 7.64086 12.5367 7.48825 12.4242 7.37573C12.3116 7.26321 12.159 7.19999 11.9999 7.19999C11.8408 7.19999 11.6882 7.26321 11.5756 7.37573C11.4631 7.48825 11.3999 7.64086 11.3999 7.79999V11.4H7.7999C7.64077 11.4 7.48816 11.4632 7.37564 11.5757C7.26312 11.6883 7.1999 11.8409 7.1999 12Z" fill="#AAB8C2"/>
</svg>
